<svg width="71" height="63" viewBox="0 0 71 63" fill="none" xmlns="http://www.w3.org/2000/svg">
<path id="&#226;&#128;&#156;" opacity="0.2" d="M53.5372 6.10275e-06C58.8986 6.57146e-06 63.1877 1.94444 66.4045 5.83332C69.4682 9.87777 71 15.0889 71 21.4667C71 30.1778 68.7023 38.0333 64.1068 45.0333C59.3581 52.1889 52.1586 58.1778 42.5081 63L39.9806 59.2667C44.5761 56.4667 48.7886 52.5 52.6181 47.3667C56.2945 42.3889 58.1327 37.3333 58.1327 32.2C58.1327 30.8 57.7497 29.6333 56.9838 28.7C56.2179 27.9222 55.069 27.5333 53.5372 27.5333C49.7077 27.5333 46.4908 26.1333 43.8867 23.3333C41.1294 20.6889 39.7508 17.4222 39.7508 13.5333C39.7508 9.64444 41.1295 6.37777 43.8867 3.73333C46.4908 1.24444 49.7077 5.76796e-06 53.5372 6.10275e-06ZM13.7864 2.62762e-06C19.1478 3.09633e-06 23.4369 1.94443 26.6537 5.83332C29.7174 9.87777 31.2492 15.0889 31.2492 21.4667C31.2492 30.1778 28.9515 38.0333 24.356 45.0333C19.6073 52.1889 12.4078 58.1778 2.75727 63L0.22976 59.2667C4.82523 56.4667 9.03775 52.5 12.8673 47.3667C16.5437 42.3889 18.3819 37.3333 18.3819 32.2C18.3819 30.8 17.9989 29.6333 17.233 28.7C16.4671 27.9222 15.3182 27.5333 13.7864 27.5333C9.95685 27.5333 6.74002 26.1333 4.13591 23.3333C1.37864 20.6889 -3.64486e-06 17.4222 -3.30488e-06 13.5333C-2.9649e-06 9.64443 1.37864 6.37777 4.13592 3.73332C6.74002 1.24444 9.95685 2.29283e-06 13.7864 2.62762e-06Z" fill="url(#paint0_linear_20_206)"/>
<defs>
<linearGradient id="paint0_linear_20_206" x1="71" y1="63" x2="-2.50089" y2="57.8555" gradientUnits="userSpaceOnUse">
<stop stop-color="#1044FC"/>
<stop offset="0.414661" stop-color="#C6ACF5"/>
<stop offset="0.715322" stop-color="#F190DF"/>
<stop offset="1" stop-color="#FFF5B7"/>
</linearGradient>
</defs>
</svg>
