<svg width="153" height="17" viewBox="0 0 153 17" fill="none" xmlns="http://www.w3.org/2000/svg">
<g id="vividbloc.studio">
<path d="M0.0526269 5.53907C-0.0732649 5.1713 0.026708 4.98742 0.352545 4.98742H1.56333C1.8003 4.98742 1.96692 5.13377 2.06319 5.42649L4.41811 12.857C4.61065 13.4649 4.74024 13.8852 4.80689 14.1179C4.88095 14.343 4.94759 14.6245 5.00684 14.9623H5.05127C5.11051 14.6245 5.17346 14.343 5.24011 14.1179C5.31416 13.8852 5.44746 13.4649 5.64 12.857L7.99492 5.42649C8.09119 5.13377 8.25781 4.98742 8.49478 4.98742H9.70556C10.0314 4.98742 10.1314 5.1713 10.0055 5.53907L6.36203 16.1219C6.20651 16.5797 6.00657 16.8086 5.76219 16.8086H4.29592C4.05154 16.8086 3.8516 16.5797 3.69608 16.1219L0.0526269 5.53907Z" fill="url(#paint0_linear_20_255)"/>
<path d="M12.3937 16.8086C12.0605 16.8086 11.8939 16.6397 11.8939 16.302V5.49404C11.8939 5.15629 12.0605 4.98742 12.3937 4.98742H13.349C13.6823 4.98742 13.8489 5.15629 13.8489 5.49404V16.302C13.8489 16.6397 13.6823 16.8086 13.349 16.8086H12.3937ZM12.3937 2.84834C12.0605 2.84834 11.8939 2.67947 11.8939 2.34172V1.37351C11.8939 1.03576 12.0605 0.866887 12.3937 0.866887H13.349C13.6823 0.866887 13.8489 1.03576 13.8489 1.37351V2.34172C13.8489 2.67947 13.6823 2.84834 13.349 2.84834H12.3937Z" fill="url(#paint1_linear_20_255)"/>
<path d="M16.1149 5.53907C15.989 5.1713 16.089 4.98742 16.4149 4.98742H17.6256C17.8626 4.98742 18.0292 5.13377 18.1255 5.42649L20.4804 12.857C20.673 13.4649 20.8025 13.8852 20.8692 14.1179C20.9433 14.343 21.0099 14.6245 21.0691 14.9623H21.1136C21.1728 14.6245 21.2358 14.343 21.3024 14.1179C21.3765 13.8852 21.5098 13.4649 21.7023 12.857L24.0572 5.42649C24.1535 5.13377 24.3201 4.98742 24.5571 4.98742H25.7679C26.0937 4.98742 26.1937 5.1713 26.0678 5.53907L22.4243 16.1219C22.2688 16.5797 22.0689 16.8086 21.8245 16.8086H20.3582C20.1138 16.8086 19.9139 16.5797 19.7584 16.1219L16.1149 5.53907Z" fill="url(#paint2_linear_20_255)"/>
<path d="M28.456 16.8086C28.1228 16.8086 27.9562 16.6397 27.9562 16.302V5.49404C27.9562 5.15629 28.1228 4.98742 28.456 4.98742H29.4113C29.7446 4.98742 29.9112 5.15629 29.9112 5.49404V16.302C29.9112 16.6397 29.7446 16.8086 29.4113 16.8086H28.456ZM28.456 2.84834C28.1228 2.84834 27.9562 2.67947 27.9562 2.34172V1.37351C27.9562 1.03576 28.1228 0.866887 28.456 0.866887H29.4113C29.7446 0.866887 29.9112 1.03576 29.9112 1.37351V2.34172C29.9112 2.67947 29.7446 2.84834 29.4113 2.84834H28.456Z" fill="url(#paint3_linear_20_255)"/>
<path d="M32.4327 10.898C32.4327 9.28433 32.8178 7.86578 33.588 6.64238C34.3581 5.41148 35.4837 4.79603 36.9648 4.79603C37.8164 4.79603 38.4977 4.93863 39.0087 5.22384C39.5197 5.50905 39.9788 5.89934 40.3861 6.3947H40.4083C40.3935 6.16954 40.3861 5.94062 40.3861 5.70795V0.698013C40.3861 0.360265 40.5527 0.191391 40.886 0.191391H41.8413C42.1745 0.191391 42.3411 0.360265 42.3411 0.698013V16.302C42.3411 16.6397 42.1745 16.8086 41.8413 16.8086H40.9082C40.6416 16.8086 40.4972 16.6397 40.475 16.302L40.4083 15.4013H40.3861C39.9788 15.8967 39.5197 16.287 39.0087 16.5722C38.4977 16.8574 37.8164 17 36.9648 17C35.4837 17 34.3581 16.3883 33.588 15.1649C32.8178 13.934 32.4327 12.5117 32.4327 10.898ZM34.4988 10.898C34.4988 12.279 34.7321 13.3974 35.1986 14.253C35.6726 15.1086 36.4724 15.5364 37.598 15.5364C38.3978 15.5364 39.0606 15.2625 39.5863 14.7146C40.1195 14.1592 40.3861 13.3185 40.3861 12.1927V9.60331C40.3861 8.47748 40.1195 7.64062 39.5863 7.09272C39.0606 6.53731 38.3978 6.2596 37.598 6.2596C36.4724 6.2596 35.6726 6.68742 35.1986 7.54305C34.7321 8.39868 34.4988 9.517 34.4988 10.898Z" fill="url(#paint4_linear_20_255)"/>
<path d="M46.0068 16.8086C45.6736 16.8086 45.507 16.6397 45.507 16.302V0.698013C45.507 0.360265 45.6736 0.191391 46.0068 0.191391H46.9621C47.2954 0.191391 47.462 0.360265 47.462 0.698013V5.70795C47.462 5.94062 47.4546 6.16954 47.4398 6.3947H47.462C47.8693 5.89934 48.3284 5.50905 48.8394 5.22384C49.3504 4.93863 50.0317 4.79603 50.8833 4.79603C52.3643 4.79603 53.49 5.41148 54.2601 6.64238C55.0303 7.86578 55.4154 9.28433 55.4154 10.898C55.4154 12.5117 55.0303 13.934 54.2601 15.1649C53.49 16.3883 52.3643 17 50.8833 17C50.0317 17 49.3504 16.8574 48.8394 16.5722C48.3284 16.287 47.8693 15.8967 47.462 15.4013H47.4398L47.3731 16.302C47.3509 16.6397 47.2065 16.8086 46.9399 16.8086H46.0068ZM47.462 12.1927C47.462 13.3185 47.7249 14.1592 48.2507 14.7146C48.7838 15.2625 49.4503 15.5364 50.2501 15.5364C51.3757 15.5364 52.1718 15.1086 52.6384 14.253C53.1123 13.3974 53.3493 12.279 53.3493 10.898C53.3493 9.517 53.1123 8.39868 52.6384 7.54305C52.1718 6.68742 51.3757 6.2596 50.2501 6.2596C49.4503 6.2596 48.7838 6.53731 48.2507 7.09272C47.7249 7.64062 47.462 8.47748 47.462 9.60331V12.1927Z" fill="url(#paint5_linear_20_255)"/>
<path d="M58.4479 16.8086C58.1146 16.8086 57.948 16.6397 57.948 16.302V2.25166C57.948 2.10155 57.985 1.95894 58.0591 1.82384L58.8367 0.39404C58.9774 0.131347 59.0922 0 59.181 0H59.5698C59.792 0 59.903 0.131347 59.903 0.39404V16.302C59.903 16.6397 59.7364 16.8086 59.4032 16.8086H58.4479Z" fill="url(#paint6_linear_20_255)"/>
<path d="M62.4246 10.898C62.4246 9.13422 62.8837 7.67815 63.802 6.5298C64.7277 5.37395 66.0791 4.79603 67.8564 4.79603C69.6337 4.79603 70.9815 5.37395 71.8998 6.5298C72.8255 7.67815 73.2883 9.13422 73.2883 10.898C73.2883 12.6618 72.8255 14.1216 71.8998 15.2775C70.9815 16.4258 69.6337 17 67.8564 17C66.0791 17 64.7277 16.4258 63.802 15.2775C62.8837 14.1216 62.4246 12.6618 62.4246 10.898ZM64.4907 10.898C64.4907 12.4742 64.798 13.6413 65.4127 14.3993C66.0273 15.1574 66.8419 15.5364 67.8564 15.5364C68.871 15.5364 69.6856 15.1574 70.3002 14.3993C70.9149 13.6413 71.2222 12.4742 71.2222 10.898C71.2222 9.32185 70.9149 8.15475 70.3002 7.39669C69.6856 6.63863 68.871 6.2596 67.8564 6.2596C66.8419 6.2596 66.0273 6.63863 65.4127 7.39669C64.798 8.15475 64.4907 9.32185 64.4907 10.898Z" fill="url(#paint7_linear_20_255)"/>
<path d="M75.1767 10.898C75.1767 9.13422 75.6062 7.67815 76.4652 6.5298C77.3316 5.37395 78.6535 4.79603 80.4308 4.79603C81.6305 4.79603 82.545 5.01369 83.1745 5.44901C83.8114 5.87682 84.2705 6.31589 84.5519 6.76623C84.7074 7.01391 84.6741 7.2128 84.4519 7.36291L83.7521 7.8245C83.53 7.98212 83.3078 7.8808 83.0856 7.52053C82.8709 7.17528 82.5673 6.87881 82.1748 6.63113C81.7897 6.38344 81.2084 6.2596 80.4308 6.2596C79.4163 6.2596 78.6313 6.63863 78.0759 7.39669C77.5205 8.15475 77.2428 9.32185 77.2428 10.898C77.2428 12.4742 77.5205 13.6413 78.0759 14.3993C78.6313 15.1574 79.4163 15.5364 80.4308 15.5364C81.2528 15.5364 81.8823 15.3788 82.3192 15.0636C82.7561 14.7408 83.0745 14.3918 83.2745 14.0166C83.467 13.6638 83.6855 13.5625 83.9299 13.7126L84.6741 14.1629C84.8963 14.298 84.9296 14.5007 84.7741 14.7709C84.5889 15.0936 84.1668 15.5477 83.5078 16.1331C82.8561 16.711 81.8304 17 80.4308 17C78.6535 17 77.3316 16.4258 76.4652 15.2775C75.6062 14.1216 75.1767 12.6618 75.1767 10.898Z" fill="url(#paint8_linear_20_255)"/>
<path d="M88.3398 16.8086C88.0065 16.8086 87.8399 16.6397 87.8399 16.302V14.9285C87.8399 14.5907 88.0065 14.4219 88.3398 14.4219H89.5839C89.9171 14.4219 90.0837 14.5907 90.0837 14.9285V16.302C90.0837 16.6397 89.9171 16.8086 89.5839 16.8086H88.3398Z" fill="url(#paint9_linear_20_255)"/>
<path d="M93.4162 15.7053C93.1866 15.4876 93.1385 15.285 93.2718 15.0974L93.7716 14.3881C93.9345 14.1629 94.1752 14.1742 94.4937 14.4219C94.9306 14.7596 95.4156 15.0298 95.9488 15.2325C96.4894 15.4351 97.1041 15.5364 97.7928 15.5364C98.2001 15.5364 98.5629 15.4876 98.8814 15.3901C99.1998 15.285 99.4775 15.0936 99.7145 14.8159C99.9588 14.5382 100.081 14.1667 100.081 13.7013C100.081 13.4311 100.022 13.1759 99.9033 12.9358C99.7922 12.6956 99.6145 12.5042 99.3701 12.3616C99.1331 12.2115 98.8999 12.0951 98.6703 12.0126C98.2926 11.87 97.9149 11.7536 97.5373 11.6636C97.167 11.566 96.6782 11.4196 96.071 11.2245C95.6637 11.0969 95.2786 10.9168 94.9158 10.6841C94.5529 10.4439 94.2345 10.1212 93.9605 9.71589C93.6939 9.3106 93.5606 8.75144 93.5606 8.03841C93.5606 7.31038 93.779 6.68366 94.216 6.15828C94.6529 5.63289 95.2009 5.27638 95.8599 5.08874C96.519 4.8936 97.1596 4.79603 97.7816 4.79603C98.6999 4.79603 99.4368 4.90486 99.9922 5.12252C100.555 5.33267 101.04 5.58411 101.447 5.87682C101.684 6.04945 101.718 6.24834 101.547 6.47351L101.047 7.14901C100.892 7.36667 100.651 7.35916 100.325 7.12649C100.051 6.93135 99.6626 6.74746 99.1591 6.57483C98.6555 6.40221 98.2149 6.31589 97.8372 6.31589C97.3707 6.31589 96.9708 6.36843 96.6375 6.47351C96.3043 6.57859 96.034 6.75872 95.8266 7.01391C95.6193 7.26909 95.5156 7.56932 95.5156 7.91457C95.5156 8.17726 95.5563 8.41369 95.6378 8.62384C95.7192 8.82649 95.8711 9.01413 96.0932 9.18676C96.3154 9.35938 96.6264 9.49823 97.0263 9.60331C97.6484 9.76843 98.2149 9.91854 98.7258 10.0536C99.2442 10.1887 99.7108 10.3539 100.125 10.549C100.666 10.8042 101.081 11.0857 101.37 11.3934C101.666 11.7011 101.869 12.0351 101.981 12.3954C102.092 12.7481 102.147 13.1422 102.147 13.5775C102.147 14.3806 101.91 15.0598 101.436 15.6152C100.97 16.1706 100.448 16.5422 99.87 16.7298C99.2924 16.9099 98.5962 17 97.7816 17C96.6782 17 95.7304 16.8424 94.938 16.5272C94.153 16.2044 93.6457 15.9305 93.4162 15.7053Z" fill="url(#paint10_linear_20_255)"/>
<path d="M103.791 6.47351C103.458 6.47351 103.291 6.34216 103.291 6.07947V5.38146C103.291 5.11876 103.458 4.98742 103.791 4.98742H105.102V3.97417C105.102 3.82406 105.139 3.68146 105.213 3.54636L105.991 2.11656C106.131 1.85386 106.246 1.72252 106.335 1.72252H106.724C106.946 1.72252 107.057 1.85386 107.057 2.11656V4.98742H109.423C109.756 4.98742 109.923 5.11876 109.923 5.38146V6.07947C109.923 6.34216 109.756 6.47351 109.423 6.47351H107.057V13.645C107.057 14.4331 107.172 14.9472 107.401 15.1874C107.638 15.4201 107.92 15.5364 108.245 15.5364C108.497 15.5364 108.797 15.4614 109.145 15.3113C109.501 15.1611 109.745 15.0336 109.878 14.9285C110.012 14.8234 110.115 14.8572 110.189 15.0298L110.556 15.8967C110.615 16.0468 110.571 16.1669 110.423 16.257C110.134 16.4296 109.712 16.5985 109.156 16.7636C108.601 16.9212 108.046 17 107.49 17C106.72 17 106.128 16.7185 105.713 16.1556C105.306 15.5927 105.102 14.7971 105.102 13.7689V6.47351H103.791Z" fill="url(#paint11_linear_20_255)"/>
<path d="M112.755 12.6881V5.49404C112.755 5.15629 112.922 4.98742 113.255 4.98742H114.211C114.544 4.98742 114.71 5.15629 114.71 5.49404V12.1477C114.71 13.6188 114.951 14.5532 115.432 14.951C115.914 15.3413 116.51 15.5364 117.221 15.5364C118.154 15.5364 118.869 15.2475 119.365 14.6695C119.861 14.0841 120.109 13.0859 120.109 11.6748V5.49404C120.109 5.15629 120.276 4.98742 120.609 4.98742H121.564C121.897 4.98742 122.064 5.15629 122.064 5.49404V16.302C122.064 16.6397 121.897 16.8086 121.564 16.8086H120.631C120.298 16.8086 120.131 16.6397 120.131 16.302V15.4013H120.087C119.605 15.9417 119.087 16.3433 118.532 16.606C117.976 16.8687 117.299 17 116.499 17C115.203 17 114.255 16.6172 113.655 15.8517C113.055 15.0786 112.755 14.0241 112.755 12.6881Z" fill="url(#paint12_linear_20_255)"/>
<path d="M124.585 10.898C124.585 9.28433 124.971 7.86578 125.741 6.64238C126.511 5.41148 127.637 4.79603 129.118 4.79603C129.969 4.79603 130.651 4.93863 131.161 5.22384C131.672 5.50905 132.132 5.89934 132.539 6.3947H132.561C132.546 6.16954 132.539 5.94062 132.539 5.70795V0.698013C132.539 0.360265 132.706 0.191391 133.039 0.191391H133.994C134.327 0.191391 134.494 0.360265 134.494 0.698013V16.302C134.494 16.6397 134.327 16.8086 133.994 16.8086H133.061C132.794 16.8086 132.65 16.6397 132.628 16.302L132.561 15.4013H132.539C132.132 15.8967 131.672 16.287 131.161 16.5722C130.651 16.8574 129.969 17 129.118 17C127.637 17 126.511 16.3883 125.741 15.1649C124.971 13.934 124.585 12.5117 124.585 10.898ZM126.652 10.898C126.652 12.279 126.885 13.3974 127.351 14.253C127.825 15.1086 128.625 15.5364 129.751 15.5364C130.551 15.5364 131.213 15.2625 131.739 14.7146C132.272 14.1592 132.539 13.3185 132.539 12.1927V9.60331C132.539 8.47748 132.272 7.64062 131.739 7.09272C131.213 6.53731 130.551 6.2596 129.751 6.2596C128.625 6.2596 127.825 6.68742 127.351 7.54305C126.885 8.39868 126.652 9.517 126.652 10.898Z" fill="url(#paint13_linear_20_255)"/>
<path d="M138.16 16.8086C137.826 16.8086 137.66 16.6397 137.66 16.302V5.49404C137.66 5.15629 137.826 4.98742 138.16 4.98742H139.115C139.448 4.98742 139.615 5.15629 139.615 5.49404V16.302C139.615 16.6397 139.448 16.8086 139.115 16.8086H138.16ZM138.16 2.84834C137.826 2.84834 137.66 2.67947 137.66 2.34172V1.37351C137.66 1.03576 137.826 0.866887 138.16 0.866887H139.115C139.448 0.866887 139.615 1.03576 139.615 1.37351V2.34172C139.615 2.67947 139.448 2.84834 139.115 2.84834H138.16Z" fill="url(#paint14_linear_20_255)"/>
<path d="M142.136 10.898C142.136 9.13422 142.595 7.67815 143.514 6.5298C144.439 5.37395 145.791 4.79603 147.568 4.79603C149.345 4.79603 150.693 5.37395 151.611 6.5298C152.537 7.67815 153 9.13422 153 10.898C153 12.6618 152.537 14.1216 151.611 15.2775C150.693 16.4258 149.345 17 147.568 17C145.791 17 144.439 16.4258 143.514 15.2775C142.595 14.1216 142.136 12.6618 142.136 10.898ZM144.202 10.898C144.202 12.4742 144.51 13.6413 145.124 14.3993C145.739 15.1574 146.554 15.5364 147.568 15.5364C148.583 15.5364 149.397 15.1574 150.012 14.3993C150.627 13.6413 150.934 12.4742 150.934 10.898C150.934 9.32185 150.627 8.15475 150.012 7.39669C149.397 6.63863 148.583 6.2596 147.568 6.2596C146.554 6.2596 145.739 6.63863 145.124 7.39669C144.51 8.15475 144.202 9.32185 144.202 10.898Z" fill="url(#paint15_linear_20_255)"/>
</g>
<defs>
<linearGradient id="paint0_linear_20_255" x1="-0.636071" y1="-46.8299" x2="151.184" y2="23.4205" gradientUnits="userSpaceOnUse">
<stop stop-color="#1044FC"/>
<stop offset="0.414661" stop-color="#C6ACF5"/>
<stop offset="0.715322" stop-color="#F190DF"/>
<stop offset="1" stop-color="#FFF5B7"/>
</linearGradient>
<linearGradient id="paint1_linear_20_255" x1="-0.636071" y1="-46.8299" x2="151.184" y2="23.4205" gradientUnits="userSpaceOnUse">
<stop stop-color="#1044FC"/>
<stop offset="0.414661" stop-color="#C6ACF5"/>
<stop offset="0.715322" stop-color="#F190DF"/>
<stop offset="1" stop-color="#FFF5B7"/>
</linearGradient>
<linearGradient id="paint2_linear_20_255" x1="-0.636071" y1="-46.8299" x2="151.184" y2="23.4205" gradientUnits="userSpaceOnUse">
<stop stop-color="#1044FC"/>
<stop offset="0.414661" stop-color="#C6ACF5"/>
<stop offset="0.715322" stop-color="#F190DF"/>
<stop offset="1" stop-color="#FFF5B7"/>
</linearGradient>
<linearGradient id="paint3_linear_20_255" x1="-0.636071" y1="-46.8299" x2="151.184" y2="23.4205" gradientUnits="userSpaceOnUse">
<stop stop-color="#1044FC"/>
<stop offset="0.414661" stop-color="#C6ACF5"/>
<stop offset="0.715322" stop-color="#F190DF"/>
<stop offset="1" stop-color="#FFF5B7"/>
</linearGradient>
<linearGradient id="paint4_linear_20_255" x1="-0.636071" y1="-46.8299" x2="151.184" y2="23.4205" gradientUnits="userSpaceOnUse">
<stop stop-color="#1044FC"/>
<stop offset="0.414661" stop-color="#C6ACF5"/>
<stop offset="0.715322" stop-color="#F190DF"/>
<stop offset="1" stop-color="#FFF5B7"/>
</linearGradient>
<linearGradient id="paint5_linear_20_255" x1="-0.636071" y1="-46.8299" x2="151.184" y2="23.4205" gradientUnits="userSpaceOnUse">
<stop stop-color="#1044FC"/>
<stop offset="0.414661" stop-color="#C6ACF5"/>
<stop offset="0.715322" stop-color="#F190DF"/>
<stop offset="1" stop-color="#FFF5B7"/>
</linearGradient>
<linearGradient id="paint6_linear_20_255" x1="-0.636071" y1="-46.8299" x2="151.184" y2="23.4205" gradientUnits="userSpaceOnUse">
<stop stop-color="#1044FC"/>
<stop offset="0.414661" stop-color="#C6ACF5"/>
<stop offset="0.715322" stop-color="#F190DF"/>
<stop offset="1" stop-color="#FFF5B7"/>
</linearGradient>
<linearGradient id="paint7_linear_20_255" x1="-0.636071" y1="-46.8299" x2="151.184" y2="23.4205" gradientUnits="userSpaceOnUse">
<stop stop-color="#1044FC"/>
<stop offset="0.414661" stop-color="#C6ACF5"/>
<stop offset="0.715322" stop-color="#F190DF"/>
<stop offset="1" stop-color="#FFF5B7"/>
</linearGradient>
<linearGradient id="paint8_linear_20_255" x1="-0.636071" y1="-46.8299" x2="151.184" y2="23.4205" gradientUnits="userSpaceOnUse">
<stop stop-color="#1044FC"/>
<stop offset="0.414661" stop-color="#C6ACF5"/>
<stop offset="0.715322" stop-color="#F190DF"/>
<stop offset="1" stop-color="#FFF5B7"/>
</linearGradient>
<linearGradient id="paint9_linear_20_255" x1="-0.636071" y1="-46.8299" x2="151.184" y2="23.4205" gradientUnits="userSpaceOnUse">
<stop stop-color="#1044FC"/>
<stop offset="0.414661" stop-color="#C6ACF5"/>
<stop offset="0.715322" stop-color="#F190DF"/>
<stop offset="1" stop-color="#FFF5B7"/>
</linearGradient>
<linearGradient id="paint10_linear_20_255" x1="-0.636071" y1="-46.8299" x2="151.184" y2="23.4205" gradientUnits="userSpaceOnUse">
<stop stop-color="#1044FC"/>
<stop offset="0.414661" stop-color="#C6ACF5"/>
<stop offset="0.715322" stop-color="#F190DF"/>
<stop offset="1" stop-color="#FFF5B7"/>
</linearGradient>
<linearGradient id="paint11_linear_20_255" x1="-0.636071" y1="-46.8299" x2="151.184" y2="23.4205" gradientUnits="userSpaceOnUse">
<stop stop-color="#1044FC"/>
<stop offset="0.414661" stop-color="#C6ACF5"/>
<stop offset="0.715322" stop-color="#F190DF"/>
<stop offset="1" stop-color="#FFF5B7"/>
</linearGradient>
<linearGradient id="paint12_linear_20_255" x1="-0.636071" y1="-46.8299" x2="151.184" y2="23.4205" gradientUnits="userSpaceOnUse">
<stop stop-color="#1044FC"/>
<stop offset="0.414661" stop-color="#C6ACF5"/>
<stop offset="0.715322" stop-color="#F190DF"/>
<stop offset="1" stop-color="#FFF5B7"/>
</linearGradient>
<linearGradient id="paint13_linear_20_255" x1="-0.636071" y1="-46.8299" x2="151.184" y2="23.4205" gradientUnits="userSpaceOnUse">
<stop stop-color="#1044FC"/>
<stop offset="0.414661" stop-color="#C6ACF5"/>
<stop offset="0.715322" stop-color="#F190DF"/>
<stop offset="1" stop-color="#FFF5B7"/>
</linearGradient>
<linearGradient id="paint14_linear_20_255" x1="-0.636071" y1="-46.8299" x2="151.184" y2="23.4205" gradientUnits="userSpaceOnUse">
<stop stop-color="#1044FC"/>
<stop offset="0.414661" stop-color="#C6ACF5"/>
<stop offset="0.715322" stop-color="#F190DF"/>
<stop offset="1" stop-color="#FFF5B7"/>
</linearGradient>
<linearGradient id="paint15_linear_20_255" x1="-0.636071" y1="-46.8299" x2="151.184" y2="23.4205" gradientUnits="userSpaceOnUse">
<stop stop-color="#1044FC"/>
<stop offset="0.414661" stop-color="#C6ACF5"/>
<stop offset="0.715322" stop-color="#F190DF"/>
<stop offset="1" stop-color="#FFF5B7"/>
</linearGradient>
</defs>
</svg>
