<svg width="112" height="58" viewBox="0 0 112 58" fill="none" xmlns="http://www.w3.org/2000/svg">
<g id="vividbloc studio">
<path d="M0.06894 7.22372C-0.0959753 6.74409 0.0349869 6.50428 0.461826 6.50428H2.04792C2.35835 6.50428 2.57662 6.69515 2.70273 7.07689L5.78762 16.7672C6.03984 17.5601 6.20961 18.1082 6.29692 18.4117C6.39393 18.7053 6.48124 19.0724 6.55884 19.5128H6.61705C6.69465 19.0724 6.77711 18.7053 6.86442 18.4117C6.96143 18.1082 7.13604 17.5601 7.38827 16.7672L10.4732 7.07689C10.5993 6.69515 10.8175 6.50428 11.128 6.50428H12.7141C13.1409 6.50428 13.2719 6.74409 13.107 7.22372L8.33411 21.0251C8.13039 21.6222 7.86846 21.9207 7.54833 21.9207H5.62756C5.30743 21.9207 5.0455 21.6222 4.84178 21.0251L0.06894 7.22372Z" fill="url(#paint0_linear_20_174)" fill-opacity="0.21"/>
<path d="M16.2355 21.9207C15.7989 21.9207 15.5807 21.7005 15.5807 21.26V7.16499C15.5807 6.72452 15.7989 6.50428 16.2355 6.50428H17.4869C17.9234 6.50428 18.1417 6.72452 18.1417 7.16499V21.26C18.1417 21.7005 17.9234 21.9207 17.4869 21.9207H16.2355ZM16.2355 3.71463C15.7989 3.71463 15.5807 3.4944 15.5807 3.05393V1.79125C15.5807 1.35078 15.7989 1.13054 16.2355 1.13054H17.4869C17.9234 1.13054 18.1417 1.35078 18.1417 1.79125V3.05393C18.1417 3.4944 17.9234 3.71463 17.4869 3.71463H16.2355Z" fill="url(#paint1_linear_20_174)" fill-opacity="0.21"/>
<path d="M21.1102 7.22372C20.9453 6.74409 21.0762 6.50428 21.5031 6.50428H23.0892C23.3996 6.50428 23.6179 6.69515 23.744 7.07689L26.8289 16.7672C27.0811 17.5601 27.2509 18.1082 27.3382 18.4117C27.4352 18.7053 27.5225 19.0724 27.6001 19.5128H27.6583C27.7359 19.0724 27.8184 18.7053 27.9057 18.4117C28.0027 18.1082 28.1773 17.5601 28.4295 16.7672L31.5144 7.07689C31.6405 6.69515 31.8588 6.50428 32.1692 6.50428H33.7553C34.1822 6.50428 34.3131 6.74409 34.1482 7.22372L29.3754 21.0251C29.1716 21.6222 28.9097 21.9207 28.5896 21.9207H26.6688C26.3487 21.9207 26.0868 21.6222 25.883 21.0251L21.1102 7.22372Z" fill="url(#paint2_linear_20_174)" fill-opacity="0.21"/>
<path d="M37.2767 21.9207C36.8402 21.9207 36.6219 21.7005 36.6219 21.26V7.16499C36.6219 6.72452 36.8402 6.50428 37.2767 6.50428H38.5282C38.9647 6.50428 39.183 6.72452 39.183 7.16499V21.26C39.183 21.7005 38.9647 21.9207 38.5282 21.9207H37.2767ZM37.2767 3.71463C36.8402 3.71463 36.6219 3.4944 36.6219 3.05393V1.79125C36.6219 1.35078 36.8402 1.13054 37.2767 1.13054H38.5282C38.9647 1.13054 39.183 1.35078 39.183 1.79125V3.05393C39.183 3.4944 38.9647 3.71463 38.5282 3.71463H37.2767Z" fill="url(#paint3_linear_20_174)" fill-opacity="0.21"/>
<path d="M42.4861 14.2125C42.4861 12.108 42.9906 10.2581 43.9995 8.66259C45.0084 7.05732 46.4829 6.25468 48.4231 6.25468C49.5387 6.25468 50.4312 6.44066 51.1005 6.81261C51.7699 7.18456 52.3713 7.69355 52.9049 8.33957H52.934C52.9146 8.04593 52.9049 7.74739 52.9049 7.44395V0.910306C52.9049 0.469835 53.1232 0.2496 53.5597 0.2496H54.8111C55.2477 0.2496 55.4659 0.469835 55.4659 0.910306V21.26C55.4659 21.7005 55.2477 21.9207 54.8111 21.9207H53.5888C53.2396 21.9207 53.0504 21.7005 53.0213 21.26L52.934 20.0855H52.9049C52.3713 20.7315 51.7699 21.2405 51.1005 21.6124C50.4312 21.9844 49.5387 22.1703 48.4231 22.1703C46.4829 22.1703 45.0084 21.3726 43.9995 19.7771C42.9906 18.1719 42.4861 16.317 42.4861 14.2125ZM45.1927 14.2125C45.1927 16.0135 45.4983 17.472 46.1094 18.5879C46.7303 19.7037 47.778 20.2616 49.2525 20.2616C50.3002 20.2616 51.1684 19.9044 51.8572 19.1898C52.5557 18.4655 52.9049 17.3692 52.9049 15.901V12.524C52.9049 11.0558 52.5557 9.96442 51.8572 9.24988C51.1684 8.52555 50.3002 8.16339 49.2525 8.16339C47.778 8.16339 46.7303 8.72132 46.1094 9.83717C45.4983 10.953 45.1927 12.4115 45.1927 14.2125Z" fill="url(#paint4_linear_20_174)" fill-opacity="0.21"/>
<path d="M60.2679 21.9207C59.8313 21.9207 59.6131 21.7005 59.6131 21.26V0.910306C59.6131 0.469835 59.8313 0.2496 60.2679 0.2496H61.5193C61.9558 0.2496 62.1741 0.469835 62.1741 0.910306V7.44395C62.1741 7.74739 62.1644 8.04593 62.145 8.33957H62.1741C62.7077 7.69355 63.3091 7.18456 63.9785 6.81261C64.6478 6.44066 65.5403 6.25468 66.6559 6.25468C68.5961 6.25468 70.0706 7.05732 71.0795 8.66259C72.0884 10.2581 72.5929 12.108 72.5929 14.2125C72.5929 16.317 72.0884 18.1719 71.0795 19.7771C70.0706 21.3726 68.5961 22.1703 66.6559 22.1703C65.5403 22.1703 64.6478 21.9844 63.9785 21.6124C63.3091 21.2405 62.7077 20.7315 62.1741 20.0855H62.145L62.0577 21.26C62.0286 21.7005 61.8394 21.9207 61.4902 21.9207H60.2679ZM62.1741 15.901C62.1741 17.3692 62.5185 18.4655 63.2072 19.1898C63.9057 19.9044 64.7788 20.2616 65.8265 20.2616C67.301 20.2616 68.3439 19.7037 68.955 18.5879C69.5759 17.472 69.8863 16.0135 69.8863 14.2125C69.8863 12.4115 69.5759 10.953 68.955 9.83717C68.3439 8.72132 67.301 8.16339 65.8265 8.16339C64.7788 8.16339 63.9057 8.52555 63.2072 9.24988C62.5185 9.96442 62.1741 11.0558 62.1741 12.524V15.901Z" fill="url(#paint5_linear_20_174)" fill-opacity="0.21"/>
<path d="M76.5654 21.9207C76.1288 21.9207 75.9106 21.7005 75.9106 21.26V2.93647C75.9106 2.74071 75.9591 2.55473 76.0561 2.37854L77.0747 0.513882C77.259 0.171294 77.4094 0 77.5258 0H78.0351C78.3261 0 78.4716 0.171294 78.4716 0.513882V21.26C78.4716 21.7005 78.2533 21.9207 77.8168 21.9207H76.5654Z" fill="url(#paint6_linear_20_174)" fill-opacity="0.21"/>
<path d="M81.7748 14.2125C81.7748 11.9123 82.3762 10.0134 83.5791 8.51576C84.7918 7.00837 86.5622 6.25468 88.8904 6.25468C91.2186 6.25468 92.9842 7.00837 94.1871 8.51576C95.3997 10.0134 96.006 11.9123 96.006 14.2125C96.006 16.5127 95.3997 18.4166 94.1871 19.9239C92.9842 21.4215 91.2186 22.1703 88.8904 22.1703C86.5622 22.1703 84.7918 21.4215 83.5791 19.9239C82.3762 18.4166 81.7748 16.5127 81.7748 14.2125ZM84.4813 14.2125C84.4813 16.268 84.8839 17.7901 85.6891 18.7787C86.4943 19.7673 87.5614 20.2616 88.8904 20.2616C90.2194 20.2616 91.2865 19.7673 92.0917 18.7787C92.8969 17.7901 93.2994 16.268 93.2994 14.2125C93.2994 12.157 92.8969 10.6349 92.0917 9.6463C91.2865 8.65769 90.2194 8.16339 88.8904 8.16339C87.5614 8.16339 86.4943 8.65769 85.6891 9.6463C84.8839 10.6349 84.4813 12.157 84.4813 14.2125Z" fill="url(#paint7_linear_20_174)" fill-opacity="0.21"/>
<path d="M98.4797 14.2125C98.4797 11.9123 99.0424 10.0134 100.168 8.51576C101.303 7.00837 103.034 6.25468 105.363 6.25468C106.934 6.25468 108.132 6.53854 108.957 7.10626C109.791 7.66419 110.392 8.2368 110.761 8.82409C110.965 9.1471 110.921 9.40649 110.63 9.60226L109.713 10.2042C109.422 10.4098 109.131 10.2776 108.84 9.80781C108.559 9.35755 108.161 8.97092 107.647 8.6479C107.143 8.32489 106.381 8.16339 105.363 8.16339C104.033 8.16339 103.005 8.65769 102.278 9.6463C101.55 10.6349 101.186 12.157 101.186 14.2125C101.186 16.268 101.55 17.7901 102.278 18.7787C103.005 19.7673 104.033 20.2616 105.363 20.2616C106.439 20.2616 107.264 20.0561 107.836 19.645C108.409 19.2241 108.826 18.7689 109.088 18.2795C109.34 17.8195 109.626 17.6873 109.946 17.8831L110.921 18.4704C111.212 18.6466 111.256 18.9109 111.052 19.2632C110.81 19.6841 110.257 20.2763 109.393 21.0398C108.54 21.7935 107.196 22.1703 105.363 22.1703C103.034 22.1703 101.303 21.4215 100.168 19.9239C99.0424 18.4166 98.4797 16.5127 98.4797 14.2125Z" fill="url(#paint8_linear_20_174)" fill-opacity="0.21"/>
<path d="M1.37804 56.0016C0.749909 55.5489 0.576851 55.0639 0.858871 54.5465L1.83953 52.7421C2.18564 52.0954 2.72404 52.0178 3.45473 52.5093C4.18541 53.0008 5.04429 53.363 6.03136 53.5958C7.03124 53.8286 7.94139 53.945 8.76181 53.945C9.33867 53.945 9.87707 53.8868 10.377 53.7704C10.877 53.654 11.3 53.4277 11.6461 53.0914C11.9922 52.7551 12.1653 52.2636 12.1653 51.6168C12.1653 51.2288 12.0627 50.899 11.8576 50.6274C11.6525 50.3557 11.3897 50.1488 11.0692 50.0065C10.7488 49.8642 10.4091 49.7478 10.0501 49.6573C9.57582 49.5409 8.89 49.3469 7.99267 49.0752C7.10816 48.8036 6.25569 48.4867 5.43527 48.1245C4.75586 47.8271 4.08927 47.4132 3.4355 46.8828C2.79455 46.3396 2.32024 45.7381 2.01258 45.0785C1.71775 44.4188 1.57033 43.604 1.57033 42.6339C1.57033 41.3275 1.94208 40.1828 2.68558 39.1998C3.44191 38.2168 4.41616 37.5377 5.60833 37.1626C6.8005 36.7875 8.28751 36.5999 10.0694 36.5999C11.2743 36.5999 12.4473 36.7746 13.5882 37.1238C14.7291 37.473 15.5431 37.8029 16.0302 38.1133C16.7994 38.6048 16.9916 39.1286 16.6071 39.6848L15.4341 41.4116C15.0752 41.9289 14.4983 41.9677 13.7036 41.528C13.1011 41.1917 12.505 40.9201 11.9153 40.7131C11.3384 40.5062 10.6911 40.4027 9.97321 40.4027C9.48609 40.4027 9.01819 40.4544 8.56953 40.5579C8.12086 40.6614 7.73629 40.8554 7.41581 41.1399C7.10816 41.4245 6.95433 41.7996 6.95433 42.2652C6.95433 42.7567 7.09534 43.1448 7.37736 43.4293C7.67219 43.701 8.00549 43.9014 8.37724 44.0308C8.76181 44.1601 9.12716 44.283 9.47327 44.3994C10.1911 44.6322 10.9154 44.8586 11.6461 45.0785C12.3768 45.2854 13.1203 45.5377 13.8766 45.8352C14.5304 46.0938 15.1649 46.4625 15.7802 46.941C16.3956 47.4196 16.8442 48.0275 17.1262 48.7648C17.4083 49.5021 17.5493 50.3428 17.5493 51.287C17.5493 52.5417 17.1775 53.7058 16.434 54.7793C15.6905 55.8529 14.7099 56.616 13.492 57.0687C12.2742 57.5214 10.8577 57.7478 9.24253 57.7478C7.43504 57.7478 5.89676 57.6184 4.62767 57.3597C3.35858 57.1011 2.27538 56.6483 1.37804 56.0016Z" fill="url(#paint9_linear_20_174)" fill-opacity="0.21"/>
<path d="M20.4528 40.8683C19.6965 40.8683 19.3183 40.545 19.3183 39.8982V37.9581C19.3183 37.3113 19.6965 36.988 20.4528 36.988H21.7603V36.3089C21.7603 35.7269 21.8949 35.1966 22.1641 34.718L23.6447 32.0988C23.9267 31.6073 24.26 31.3615 24.6446 31.3615H25.9906C26.7598 31.3615 27.1443 31.7495 27.1443 32.5256V36.988H30.2594C31.0157 36.988 31.3938 37.3113 31.3938 37.9581V39.8982C31.3938 40.545 31.0157 40.8683 30.2594 40.8683H27.1443V50.4916C27.1443 51.8109 27.2341 52.7615 27.4135 53.3436C27.6058 53.9127 28.0929 54.1973 28.8749 54.1973C29.2723 54.1973 29.721 54.1326 30.2209 54.0033C30.7208 53.861 31.1118 53.7252 31.3938 53.5958C31.8425 53.3889 32.1373 53.5376 32.2784 54.0421L32.8552 56.2538C32.9706 56.6936 32.8039 57.017 32.3553 57.2239C31.9322 57.4179 31.349 57.5926 30.6055 57.7478C29.8748 57.9159 29.1377 58 28.3942 58C26.5611 58 24.9971 57.6184 23.7024 56.8553C22.4077 56.0922 21.7603 54.5206 21.7603 52.1407V40.8683H20.4528Z" fill="url(#paint10_linear_20_174)" fill-opacity="0.21"/>
<path d="M36.4317 48.9006V38.1521C36.4317 37.376 36.8163 36.988 37.5854 36.988H40.662C41.4312 36.988 41.8157 37.376 41.8157 38.1521V47.5037C41.8157 50.3234 42.008 52.1019 42.3926 52.8392C42.7772 53.5764 43.5848 53.945 44.8154 53.945C46.1229 53.945 47.1164 53.4212 47.7958 52.3735C48.4752 51.3129 48.8149 49.1205 48.8149 45.7963V38.1521C48.8149 37.376 49.1995 36.988 49.9686 36.988H53.0452C53.8144 36.988 54.1989 37.376 54.1989 38.1521V56.1956C54.1989 56.9717 53.8144 57.3597 53.0452 57.3597H50.0071C49.2379 57.3597 48.8534 56.9717 48.8534 56.1956V55.0703H48.7765C48.1868 56.0922 47.4369 56.7971 46.5267 57.1851C45.6166 57.5602 44.5398 57.7478 43.2963 57.7478C41.335 57.7478 39.7006 57.114 38.393 55.8464C37.0855 54.5788 36.4317 52.2636 36.4317 48.9006Z" fill="url(#paint11_linear_20_174)" fill-opacity="0.21"/>
<path d="M58.3523 47.1739C58.3523 44.3283 58.9612 41.8578 60.179 39.7624C61.4096 37.6541 63.5312 36.5999 66.5437 36.5999C67.6974 36.5999 68.6844 36.7681 69.5049 37.1044C70.3253 37.4407 71.0688 38.165 71.7354 39.2774H71.8123C71.761 38.76 71.7354 38.2426 71.7354 37.7252V29.887C71.7354 29.1109 72.1199 28.7229 72.8891 28.7229H75.9657C76.7348 28.7229 77.1194 29.1109 77.1194 29.887V56.1956C77.1194 56.9717 76.7348 57.3597 75.9657 57.3597H72.9276C72.2866 57.3597 71.9405 56.9717 71.8892 56.1956L71.8123 55.0703H71.7354C71.0688 56.1827 70.3253 56.907 69.5049 57.2433C68.6844 57.5796 67.6974 57.7478 66.5437 57.7478C63.5312 57.7478 61.4096 56.7001 60.179 54.6047C58.9612 52.4964 58.3523 50.0194 58.3523 47.1739ZM64.044 47.1739C64.044 49.2434 64.3067 50.8925 64.8323 52.1213C65.3707 53.3371 66.5052 53.945 68.2358 53.945C69.1972 53.945 70.0176 53.4018 70.697 52.3153C71.3893 51.2159 71.7354 49.7931 71.7354 48.0469V46.3008C71.7354 44.5546 71.3893 43.1383 70.697 42.0518C70.0176 40.9524 69.1972 40.4027 68.2358 40.4027C66.5052 40.4027 65.3707 41.0171 64.8323 42.2458C64.3067 43.4617 64.044 45.1044 64.044 47.1739Z" fill="url(#paint12_linear_20_174)" fill-opacity="0.21"/>
<path d="M83.5033 57.3597C82.7341 57.3597 82.3495 56.9717 82.3495 56.1956V38.1521C82.3495 37.376 82.7341 36.988 83.5033 36.988H86.5798C87.349 36.988 87.7335 37.376 87.7335 38.1521V56.1956C87.7335 56.9717 87.349 57.3597 86.5798 57.3597H83.5033ZM83.5033 34.0001C82.7341 34.0001 82.3495 33.6121 82.3495 32.836V30.3526C82.3495 29.5765 82.7341 29.1885 83.5033 29.1885H86.5798C87.349 29.1885 87.7335 29.5765 87.7335 30.3526V32.836C87.7335 33.6121 87.349 34.0001 86.5798 34.0001H83.5033Z" fill="url(#paint13_linear_20_174)" fill-opacity="0.21"/>
<path d="M91.8869 47.1739C91.8869 43.8756 92.7266 41.2887 94.4059 39.4132C96.098 37.5377 98.6105 36.5999 101.943 36.5999C105.276 36.5999 107.783 37.5377 109.462 39.4132C111.154 41.2887 112 43.8756 112 47.1739C112 50.4721 111.154 53.059 109.462 54.9345C107.783 56.81 105.276 57.7478 101.943 57.7478C98.6105 57.7478 96.098 56.81 94.4059 54.9345C92.7266 53.059 91.8869 50.4721 91.8869 47.1739ZM97.5786 47.1739C97.5786 49.6314 97.9503 51.3776 98.6938 52.4123C99.4501 53.4341 100.533 53.945 101.943 53.945C103.354 53.945 104.43 53.4341 105.174 52.4123C105.93 51.3776 106.308 49.6314 106.308 47.1739C106.308 44.7163 105.93 42.9766 105.174 41.9548C104.43 40.9201 103.354 40.4027 101.943 40.4027C100.533 40.4027 99.4501 40.9201 98.6938 41.9548C97.9503 42.9766 97.5786 44.7163 97.5786 47.1739Z" fill="url(#paint14_linear_20_174)" fill-opacity="0.21"/>
</g>
<defs>
<linearGradient id="paint0_linear_20_174" x1="-0.833243" y1="-87.8772" x2="156.827" y2="-56.1108" gradientUnits="userSpaceOnUse">
<stop stop-color="#1044FC"/>
<stop offset="0.414661" stop-color="#C6ACF5"/>
<stop offset="0.715322" stop-color="#F190DF"/>
<stop offset="1" stop-color="#FFF5B7"/>
</linearGradient>
<linearGradient id="paint1_linear_20_174" x1="-0.833243" y1="-87.8772" x2="156.827" y2="-56.1108" gradientUnits="userSpaceOnUse">
<stop stop-color="#1044FC"/>
<stop offset="0.414661" stop-color="#C6ACF5"/>
<stop offset="0.715322" stop-color="#F190DF"/>
<stop offset="1" stop-color="#FFF5B7"/>
</linearGradient>
<linearGradient id="paint2_linear_20_174" x1="-0.833243" y1="-87.8772" x2="156.827" y2="-56.1108" gradientUnits="userSpaceOnUse">
<stop stop-color="#1044FC"/>
<stop offset="0.414661" stop-color="#C6ACF5"/>
<stop offset="0.715322" stop-color="#F190DF"/>
<stop offset="1" stop-color="#FFF5B7"/>
</linearGradient>
<linearGradient id="paint3_linear_20_174" x1="-0.833243" y1="-87.8772" x2="156.827" y2="-56.1108" gradientUnits="userSpaceOnUse">
<stop stop-color="#1044FC"/>
<stop offset="0.414661" stop-color="#C6ACF5"/>
<stop offset="0.715322" stop-color="#F190DF"/>
<stop offset="1" stop-color="#FFF5B7"/>
</linearGradient>
<linearGradient id="paint4_linear_20_174" x1="-0.833243" y1="-87.8772" x2="156.827" y2="-56.1108" gradientUnits="userSpaceOnUse">
<stop stop-color="#1044FC"/>
<stop offset="0.414661" stop-color="#C6ACF5"/>
<stop offset="0.715322" stop-color="#F190DF"/>
<stop offset="1" stop-color="#FFF5B7"/>
</linearGradient>
<linearGradient id="paint5_linear_20_174" x1="-0.833243" y1="-87.8772" x2="156.827" y2="-56.1108" gradientUnits="userSpaceOnUse">
<stop stop-color="#1044FC"/>
<stop offset="0.414661" stop-color="#C6ACF5"/>
<stop offset="0.715322" stop-color="#F190DF"/>
<stop offset="1" stop-color="#FFF5B7"/>
</linearGradient>
<linearGradient id="paint6_linear_20_174" x1="-0.833243" y1="-87.8772" x2="156.827" y2="-56.1108" gradientUnits="userSpaceOnUse">
<stop stop-color="#1044FC"/>
<stop offset="0.414661" stop-color="#C6ACF5"/>
<stop offset="0.715322" stop-color="#F190DF"/>
<stop offset="1" stop-color="#FFF5B7"/>
</linearGradient>
<linearGradient id="paint7_linear_20_174" x1="-0.833243" y1="-87.8772" x2="156.827" y2="-56.1108" gradientUnits="userSpaceOnUse">
<stop stop-color="#1044FC"/>
<stop offset="0.414661" stop-color="#C6ACF5"/>
<stop offset="0.715322" stop-color="#F190DF"/>
<stop offset="1" stop-color="#FFF5B7"/>
</linearGradient>
<linearGradient id="paint8_linear_20_174" x1="-0.833243" y1="-87.8772" x2="156.827" y2="-56.1108" gradientUnits="userSpaceOnUse">
<stop stop-color="#1044FC"/>
<stop offset="0.414661" stop-color="#C6ACF5"/>
<stop offset="0.715322" stop-color="#F190DF"/>
<stop offset="1" stop-color="#FFF5B7"/>
</linearGradient>
<linearGradient id="paint9_linear_20_174" x1="-0.833243" y1="-87.8772" x2="156.827" y2="-56.1108" gradientUnits="userSpaceOnUse">
<stop stop-color="#1044FC"/>
<stop offset="0.414661" stop-color="#C6ACF5"/>
<stop offset="0.715322" stop-color="#F190DF"/>
<stop offset="1" stop-color="#FFF5B7"/>
</linearGradient>
<linearGradient id="paint10_linear_20_174" x1="-0.833243" y1="-87.8772" x2="156.827" y2="-56.1108" gradientUnits="userSpaceOnUse">
<stop stop-color="#1044FC"/>
<stop offset="0.414661" stop-color="#C6ACF5"/>
<stop offset="0.715322" stop-color="#F190DF"/>
<stop offset="1" stop-color="#FFF5B7"/>
</linearGradient>
<linearGradient id="paint11_linear_20_174" x1="-0.833243" y1="-87.8772" x2="156.827" y2="-56.1108" gradientUnits="userSpaceOnUse">
<stop stop-color="#1044FC"/>
<stop offset="0.414661" stop-color="#C6ACF5"/>
<stop offset="0.715322" stop-color="#F190DF"/>
<stop offset="1" stop-color="#FFF5B7"/>
</linearGradient>
<linearGradient id="paint12_linear_20_174" x1="-0.833243" y1="-87.8772" x2="156.827" y2="-56.1108" gradientUnits="userSpaceOnUse">
<stop stop-color="#1044FC"/>
<stop offset="0.414661" stop-color="#C6ACF5"/>
<stop offset="0.715322" stop-color="#F190DF"/>
<stop offset="1" stop-color="#FFF5B7"/>
</linearGradient>
<linearGradient id="paint13_linear_20_174" x1="-0.833243" y1="-87.8772" x2="156.827" y2="-56.1108" gradientUnits="userSpaceOnUse">
<stop stop-color="#1044FC"/>
<stop offset="0.414661" stop-color="#C6ACF5"/>
<stop offset="0.715322" stop-color="#F190DF"/>
<stop offset="1" stop-color="#FFF5B7"/>
</linearGradient>
<linearGradient id="paint14_linear_20_174" x1="-0.833243" y1="-87.8772" x2="156.827" y2="-56.1108" gradientUnits="userSpaceOnUse">
<stop stop-color="#1044FC"/>
<stop offset="0.414661" stop-color="#C6ACF5"/>
<stop offset="0.715322" stop-color="#F190DF"/>
<stop offset="1" stop-color="#FFF5B7"/>
</linearGradient>
</defs>
</svg>
